<?xml version="1.0" encoding="UTF-8"?>
<svg width="86px" height="79px" viewBox="0 0 86 79" version="1.1" xmlns="http://www.w3.org/2000/svg" xmlns:xlink="http://www.w3.org/1999/xlink">
    <!-- Generator: Sketch 48.1 (47250) - http://www.bohemiancoding.com/sketch -->
    <title>Page 1</title>
    <desc>Created with Sketch.</desc>
    <defs>
        <polygon id="path-1" points="5.63380282e-05 17 19.9530141 17 19.9530141 0.16782623 5.63380282e-05 0.16782623"></polygon>
        <polygon id="path-3" points="0.160026667 17 16.9755767 17 16.9755767 0.167603279 0.160026667 0.167603279 0.160026667 17"></polygon>
        <polygon id="path-5" points="42.8292085 0.239086207 0.167587582 0.239086207 0.167587582 48.7847943 42.8292085 48.7847943 42.8292085 0.239086207"></polygon>
    </defs>
    <g id="Blog-Update---article--Copy" stroke="none" stroke-width="1" fill="none" fill-rule="evenodd" transform="translate(-147.000000, -16.000000)">
        <g id="Menu" transform="translate(147.000000, 10.000000)">
            <g id="Page-1" transform="translate(0.000000, 6.000000)">
                <path d="M60.5062232,63.8845657 L51.1459041,63.8845657 L51.1459041,70.1886155 L60.4912653,70.1886155 C61.256057,70.1886155 61.8529879,69.5954833 61.8529879,68.8638034 L61.8529879,65.1948078 C61.8529879,64.4713401 61.262705,63.8845657 60.5062232,63.8845657 M60.7929162,72.0731812 L51.1459041,72.0731812 L51.1459041,78 L49,78 L49,62 L60.8732457,62 C62.6003287,62 64,63.3385874 64,64.9902977 L64,69.0060598 C64,70.6930031 62.55684,72.0731812 60.7929162,72.0731812" id="Fill-1" fill="#22A7F0"></path>
                <g id="Group-5" transform="translate(0.000000, 62.000000)">
                    <mask id="mask-2" fill="white">
                        <use xlink:href="#path-1"></use>
                    </mask>
                    <g id="Clip-4"></g>
                    <polygon id="Fill-3" fill="#22A7F0" mask="url(#mask-2)" points="17.7707606 17.0000557 17.7707606 3.82505574 11.0454085 17.0000557 8.90766197 17.0000557 2.18230986 3.82505574 2.18230986 17.0000557 5.63380282e-05 17.0000557 5.63380282e-05 0.16782623 2.58315493 0.16782623 9.95414085 14.598318 9.99864789 14.598318 17.3699155 0.16782623 19.9530141 0.16782623 19.9530141 17.0000557"></polygon>
                </g>
                <path d="M34.5,63.8636379 L29.9633523,72.8064505 L39.0366477,72.8064505 L34.5,63.8636379 Z M41.6869318,78 L39.9573864,74.586377 L29.0426136,74.586377 L27.3130682,78 L25,78 L25,77.9581443 L33.3096591,62 L35.6903409,62 L44,77.9581443 L44,78 L41.6869318,78 Z" id="Fill-6" fill="#22A7F0"></path>
                <g id="Group-10" transform="translate(69.000000, 62.000000)">
                    <mask id="mask-4" fill="white">
                        <use xlink:href="#path-3"></use>
                    </mask>
                    <g id="Clip-9"></g>
                    <path d="M14.77946,11.3070623 C14.77946,13.6003902 13.10156,15.0172426 10.6674433,15.0172426 L2.35529333,15.0172426 L2.35529333,2.15047213 L10.52436,2.15047213 C13.0465933,2.15047213 14.77946,3.5865541 14.77946,5.89409508 L14.77946,11.3070623 Z M10.87711,0.169554098 L10.8776767,0.167603279 L0.160026667,0.167603279 L0.160026667,17.0001115 L10.7855933,17.0001115 L10.7858767,17.0001115 L10.96891,17.0001115 L10.9683433,16.9962098 C14.53551,16.9184557 16.9755767,14.5707836 16.9755767,11.1643738 L16.9755767,5.87040656 C16.9755767,2.47263607 14.5530767,0.214422951 10.87711,0.169554098 Z" id="Fill-8" fill="#404040" mask="url(#mask-4)"></path>
                </g>
                <g id="Group-13">
                    <mask id="mask-6" fill="white">
                        <use xlink:href="#path-5"></use>
                    </mask>
                    <g id="Clip-12"></g>
                    <polygon id="Fill-11" fill="#22A7F0" mask="url(#mask-6)" points="5.51448301 9.38541494 35.2679536 39.1979724 42.8292085 39.1979724 3.94849608 0.239029885 0.167587582 0.239029885 0.167587582 48.7847943 14.796581 48.7847943 14.796581 43.4268977 5.51448301 43.4268977"></polygon>
                </g>
                <polygon id="Fill-14" fill="#22A7F0" points="19 0 19 9.20359542 24.3234251 14.6113722 24.3234251 9.23202 58.1485103 43.5922233 24.3234251 43.5922233 24.3234251 34.3326314 19 28.9254232 19 49 71 49 22.7640323 0"></polygon>
                <path d="M80.6768261,39.7685485 L46.8515589,5.40777673 L80.6768261,5.40777673 L80.6768261,39.7685485 Z M82.2356676,49 L86,49 L86,0 L34,0 L82.2356676,49 Z" id="Fill-16" fill="#404040"></path>
            </g>
        </g>
    </g>
</svg>