<?xml version="1.0" encoding="UTF-8"?>
<!-- Generator: Adobe Illustrator 22.1.0, SVG Export Plug-In . SVG Version: 6.00 Build 0)  -->
<svg version="1.1" id="Layer_1" xmlns="http://www.w3.org/2000/svg" xmlns:xlink="http://www.w3.org/1999/xlink" x="0px" y="0px" viewBox="0 0 360 219.4" style="enable-background:new 0 0 360 219.4;" xml:space="preserve">
<style type="text/css">
	.st0{fill:#1D489A;}
	.st1{fill:#FFFFFF;}
</style>
<g>
	<rect y="0.3" class="st0" width="360" height="219.4"/>
	<g>
		<g>
			<path class="st1" d="M173.6,88.7V65.1c0-1.2-0.1-2.3-0.3-3.5c-0.2-1.1-0.5-2.1-0.9-2.9c-0.5-0.8-1.1-1.4-1.8-1.9     c-0.8-0.5-1.8-0.7-3-0.7c-1.2,0-2.2,0.3-3.1,0.8c-0.9,0.5-1.6,1.2-2.2,2c-0.6,0.9-1,1.8-1.3,2.9c-0.3,1.1-0.4,2.3-0.4,3.5v23.3     h-14V64.1c0-2.4-0.5-4.4-1.5-5.8c-1-1.4-2.5-2.1-4.6-2.1c-2.2,0-3.9,0.9-5.2,2.6c-1.2,1.8-1.8,3.9-1.8,6.5v23.4h-14.1V45.8h13.6     v5.9h0.2c0.5-0.9,1.2-1.8,1.9-2.6c0.8-0.9,1.7-1.6,2.8-2.3c1.1-0.7,2.3-1.2,3.6-1.6c1.3-0.4,2.8-0.6,4.4-0.6     c3.1,0,5.7,0.6,7.8,1.9c2.1,1.3,3.8,3,5,5.4c1.4-2.2,3.2-4,5.5-5.3c2.2-1.3,4.9-2,8.1-2c2.9,0,5.3,0.5,7.3,1.6     c2,1.1,3.5,2.4,4.7,4.1c1.2,1.7,2.1,3.6,2.6,5.6c0.5,2.1,0.8,4.1,0.8,6.1v26.6H173.6z"/>
			<path class="st1" d="M251.6,88.7V65.1c0-1.2-0.1-2.3-0.3-3.4c-0.2-1.1-0.5-2-1-2.9c-0.5-0.8-1.1-1.5-1.9-2     c-0.8-0.5-1.9-0.7-3.1-0.7c-1.3,0-2.3,0.2-3.3,0.7c-0.9,0.5-1.7,1.2-2.3,2c-0.6,0.9-1.1,1.8-1.4,2.9c-0.3,1.1-0.5,2.3-0.5,3.5     v23.4h-14.1V45.8h13.6v5.9h0.2c0.5-0.9,1.2-1.8,2-2.7c0.8-0.9,1.8-1.6,2.9-2.3c1.1-0.6,2.3-1.1,3.6-1.5c1.3-0.4,2.7-0.6,4.2-0.6     c2.8,0,5.3,0.5,7.3,1.5c2,1,3.6,2.3,4.8,4c1.2,1.6,2.1,3.5,2.6,5.6c0.5,2.1,0.8,4.2,0.8,6.3v26.6H251.6z"/>
			<path class="st1" d="M302.1,88.7V45.8h14v42.8H302.1z"/>
			<path class="st1" d="M184.9,144.2c-1.1-1.1-2.5-2-4-2.7c-1.5-0.7-3.2-1.1-4.9-1.1c-1.3,0-2.5,0.3-3.6,0.8     c-1.1,0.5-1.7,1.4-1.7,2.7c0,1.2,0.6,2.1,1.8,2.6c1.2,0.5,3.2,1.1,5.9,1.7c1.6,0.3,3.2,0.8,4.8,1.5c1.6,0.6,3.1,1.5,4.4,2.5     c1.3,1,2.4,2.3,3.2,3.8c0.8,1.5,1.2,3.2,1.2,5.3c0,2.7-0.5,4.9-1.6,6.8c-1.1,1.9-2.5,3.3-4.2,4.5c-1.7,1.1-3.7,2-5.8,2.5     c-2.2,0.5-4.3,0.8-6.5,0.8c-3.5,0-6.9-0.6-10.2-1.7c-3.3-1.1-6.1-2.7-8.3-4.9l7.8-8.3c1.3,1.4,2.8,2.5,4.6,3.4     c1.8,0.9,3.8,1.4,5.8,1.4c1.1,0,2.3-0.3,3.4-0.8c1.1-0.5,1.7-1.5,1.7-2.9c0-1.3-0.7-2.3-2-2.9c-1.4-0.6-3.5-1.3-6.4-2     c-1.5-0.3-3-0.8-4.4-1.4c-1.5-0.6-2.8-1.3-4-2.3c-1.2-1-2.1-2.2-2.9-3.6c-0.7-1.4-1.1-3.1-1.1-5.1c0-2.6,0.5-4.7,1.6-6.5     c1.1-1.8,2.5-3.3,4.2-4.4c1.7-1.1,3.6-2,5.7-2.5c2.1-0.5,4.1-0.8,6.2-0.8c3.2,0,6.3,0.5,9.3,1.5c3,1,5.6,2.5,7.7,4.5L184.9,144.2     z"/>
		</g>
	</g>
	<g>
		<g>
			<path class="st1" d="M66.8,44.6c-12.5,0-22.7,10.1-22.7,22.7c0,12.5,10.1,22.7,22.7,22.7c12.5,0,22.7-10.1,22.7-22.7     C89.5,54.7,79.4,44.6,66.8,44.6z M66.8,78.2c-6,0-10.9-4.9-10.9-10.9s4.9-10.9,10.9-10.9c6,0,10.3,4.9,10.3,10.9     S72.8,78.2,66.8,78.2z"/>
		</g>
	</g>
	<g>
		<g>
			<path class="st1" d="M255.8,160.5c-1.8,2-4.5,3.3-7.5,3.3c-6,0-10.9-4.9-10.9-10.9c0-6,4.9-10.9,10.9-10.9c3.1,0,5.7,1.3,7.5,3.3     l7.9-9.1c-4-3.7-9.4-5.9-15.3-5.9c-12.5,0-22.7,10.1-22.7,22.7c0,12.5,10.1,22.7,22.7,22.7c5.9,0,11.3-2.3,15.3-5.9L255.8,160.5     L255.8,160.5z"/>
		</g>
	</g>
	<circle class="st1" cx="309.1" cy="110.1" r="8.2"/>
	<path class="st1" d="M316.1,131.5v42.8h-14v-42.8H316.1z"/>
</g>
</svg>